<svg xmlns="http://www.w3.org/2000/svg" viewBox="0 0 695 1008.34" style="fill:white;"><g id="Layer_2" data-name="Layer 2"><g id="curve_1" data-name="curve 1"><path d="M494.5,773.26c.16-3.68.26-8.66,0-14.55a88.94,88.94,0,0,0-1-12c-1.54-9.12-3.82-10.59-4-16-.26-7.73,4.08-13.73,5-15,8.15-11.26,24.33-13.5,40-13.5H655a40,40,0,0,1,40,40V881.12a127.22,127.22,0,0,1-127.22,127.22H127.22A127.22,127.22,0,0,1,0,881.12V438.56A127.22,127.22,0,0,1,127.22,311.34H241.58c5.19,0,18-.73,26.42-10a31.26,31.26,0,0,0,6-11c7-23.91-45-64.41-58-121-4.06-17.73,0-42.15,8-91,2.58-15.67,6.06-32.68,19-39,.71-.35,10.16-4.79,20-1,17.79,6.85,24.62,35.88,27,46,2.06,8.75,3.13,18,11,26a34.29,34.29,0,0,0,10,7c16.22,7.75,42.94,3.73,55-12,13-17,7.31-45.48,6-52-.35-1.72-4.64-26.26.32-39a13.78,13.78,0,0,1,1.68-3c6.34-8.91,17.4-10.9,18-11,34.56-5.71,71.32,62.19,75,69,6.41,11.85,10.24,18.92,13,30,10.23,41.06-8.74,78.58-14,89-7,13.86-11.39,17.22-26,45-6.55,12.46-10.61,21.18-13,33-2.44,12.05-6,29.49,4,39,6.77,6.47,16.77,6.38,21.5,6H567.78A127.22,127.22,0,0,1,695,438.56V603.21a40,40,0,0,1-40,40c-33.13.12-66.25-.12-99.38,0-26.13.09-50.78-1.06-55.12-2.5-42.09-14-45.56-70.83-30-109,4.14-12.72,15.43-31.67,11-35-1.14-.85-2.9-.38-4,0-31.7,11-57,60-57,60-10.77,20.87-19.9,38.57-25,65-5.58,28.91-4.09,56.64-4.92,79.41-.46,12.59-1.62,23.67-5.08,32.59a93,93,0,0,0-6,22c-.4,2.81-.79,6.51-1,20-.09,6.14-.15,14.68,0,25a20.66,20.66,0,0,0,4,13c6.37,8.42,17,8,18,8h67c1.48.06,13.1.32,21-9a26.13,26.13,0,0,0,6-17Z"/></g></g></svg>